<svg width="18" height="20" viewBox="0 0 18 20" fill="none" xmlns="http://www.w3.org/2000/svg">
<path d="M13.8125 5.1875C13.8125 6.46385 13.3055 7.68793 12.403 8.59045C11.5004 9.49297 10.2764 10 9 10C7.72365 10 6.49957 9.49297 5.59705 8.59045C4.69453 7.68793 4.1875 6.46385 4.1875 5.1875C4.1875 3.91115 4.69453 2.68707 5.59705 1.78455C6.49957 0.88203 7.72365 0.375 9 0.375C10.2764 0.375 11.5004 0.88203 12.403 1.78455C13.3055 2.68707 13.8125 3.91115 13.8125 5.1875ZM12.4375 5.1875C12.4375 4.27582 12.0753 3.40148 11.4307 2.75682C10.786 2.11216 9.91168 1.75 9 1.75C8.08832 1.75 7.21398 2.11216 6.56932 2.75682C5.92466 3.40148 5.5625 4.27582 5.5625 5.1875C5.5625 6.09918 5.92466 6.97352 6.56932 7.61818C7.21398 8.26284 8.08832 8.625 9 8.625C9.91168 8.625 10.786 8.26284 11.4307 7.61818C12.0753 6.97352 12.4375 6.09918 12.4375 5.1875ZM3.15625 11.375C2.51807 11.375 1.90603 11.6285 1.45477 12.0798C1.00352 12.531 0.75 13.1431 0.75 13.7812V14.125C0.75 15.7702 1.79706 17.1617 3.28344 18.1077C4.77806 19.0592 6.80137 19.625 9 19.625C11.1986 19.625 13.2213 19.0592 14.7166 18.1077C16.2029 17.1617 17.25 15.7702 17.25 14.125V13.7812C17.25 13.1431 16.9965 12.531 16.5452 12.0798C16.094 11.6285 15.4819 11.375 14.8438 11.375H3.15625ZM2.125 13.7812C2.125 13.5077 2.23365 13.2454 2.42705 13.052C2.62044 12.8587 2.88275 12.75 3.15625 12.75H14.8438C15.1173 12.75 15.3796 12.8587 15.573 13.052C15.7663 13.2454 15.875 13.5077 15.875 13.7812V14.125C15.875 15.1377 15.2287 16.1524 13.9782 16.9479C12.7359 17.7385 10.9779 18.25 9 18.25C7.02206 18.25 5.26412 17.7385 4.02181 16.9479C2.77056 16.1531 2.125 15.137 2.125 14.125V13.7812Z" fill="#603AE5"/>
</svg>
